# xmcd CD database file
#
# Track frame offsets:
#	150
#	13100
#	32739
#	43636
#	54500
#	67105
#	76567
#	86286
#	103495
#	115144
#	129634
#	143724
#	163238
#	174441
#	187845
#
# Disc length: 2760 seconds
#
# Revision: 1
# Processed by: cddbd v1.5.2PL0 Copyright (c) Steve Scherf et al.
# Submitted via: CDex 1.70beta2
#
DISCID=c30ac60f
DTITLE=Various Artist - The Great Australian Country [CD1]
DYEAR=2001
DGENRE=Country
TTITLE0=John Williamson - Old Man Emu
TTITLE1=Brian Cadd - Let Go
TTITLE2=Johnny Chester - The World's Greatest Mum
TTITLE3=Bill and Boyd - Put Another Log On The Fire
TTITLE4=Bobby and Laurie - Carroll County Accident
TTITLE5=Liv Maessen - Snowbird
TTITLE6=Lee Conway - Six Days On The Road
TTITLE7=The Hawking Brothers - Me And Bobby McGee
TTITLE8=Cash Backman - He'll Have To Go
TTITLE9=Bill and Boyd - I'll Be Your Baby Tonight
TTITLE10=Lee Conway - Amanda
TTITLE11=The Bushwackers - Rain Tumbles Down In July
TTITLE12=The Hawking Brothers - Working Man Blues
TTITLE13=Lee and Christine Conway - No Memories Hangin' Round
TTITLE14=Bill and Boyd - Santa Never Made It Into Darwin
EXTD=YEAR: 2001
EXTT0=
EXTT1=
EXTT2=
EXTT3=
EXTT4=
EXTT5=
EXTT6=
EXTT7=
EXTT8=
EXTT9=
EXTT10=
EXTT11=
EXTT12=
EXTT13=
EXTT14=
PLAYORDER=
